<?xml version="1.0" standalone="no"?><!DOCTYPE svg PUBLIC "-//W3C//DTD SVG 1.1//EN" "http://www.w3.org/Graphics/SVG/1.1/DTD/svg11.dtd"><svg t="1764852250390" class="icon" viewBox="0 0 1024 1024" version="1.1" xmlns="http://www.w3.org/2000/svg" p-id="29341" xmlns:xlink="http://www.w3.org/1999/xlink" width="200" height="200"><path d="M704.128 576.256V388.864c0-38.208-30.848-68.736-68.992-68.736h-186.88V132.736C448.256 94.528 479.104 64 517.312 64h374.144c38.144 0 68.992 30.976 68.992 68.736v374.336c0 38.208-30.848 68.736-68.992 68.736h-187.328v0.448zM950.336 737.536c4.16 4.992 3.2 12.16-2.304 16.192a11.136 11.136 0 0 1-6.4 2.24h-30.848c-0.512 33.728-15.68 160-203.904 189.184-2.752 0.448-4.16-3.584-1.856-4.928 98.56-57.088 98.56-128.064 98.944-184.256h-29.888c-9.216 0-14.72-10.752-8.768-17.92l75.968-96.192a21.312 21.312 0 0 1 28.544-4.032 17.472 17.472 0 0 1 4.096 4.032l76.416 95.68z" fill="#ec5da2ff" p-id="29342"></path><path d="M130.752 263.04a9.984 9.984 0 0 1 1.792-14.336 9.856 9.856 0 0 1 6.016-2.24h28.096c0.448-30.592 13.76-143.808 182.656-169.856 2.752-0.448 3.712 3.136 1.408 4.48-88.32 51.2-88.32 115.456-88.832 165.76h26.688c8.32 0 13.376 9.92 7.808 16.192L228.288 349.76a19.072 19.072 0 0 1-25.792 3.648c-1.344-0.896-2.304-2.24-3.648-3.648L130.752 263.04zM133.056 383.936h438.08c38.208 0 69.056 30.976 69.056 68.736v438.144c0 38.208-30.848 68.736-69.056 68.736H133.056A68.992 68.992 0 0 1 64 890.816V453.12A69.12 69.12 0 0 1 133.056 384zM234.752 617.6a20.736 20.736 0 0 0-20.736 20.672v61.568c0 11.2 9.216 20.672 20.736 20.672h234.24c11.52 0 20.672-9.472 20.672-20.672v-61.568a20.736 20.736 0 0 0-20.672-20.672h-234.24z" fill="#d4237a" p-id="29343"></path></svg>