<?xml version="1.0" standalone="no"?><!DOCTYPE svg PUBLIC "-//W3C//DTD SVG 1.1//EN" "http://www.w3.org/Graphics/SVG/1.1/DTD/svg11.dtd"><svg t="1764852215032" class="icon" viewBox="0 0 1024 1024" version="1.1" xmlns="http://www.w3.org/2000/svg" p-id="27467" xmlns:xlink="http://www.w3.org/1999/xlink" width="200" height="200"><path d="M976 288H48v-96a64 64 0 0 1 64-64h800a64 64 0 0 1 64 64v96z" fill="#fe037cff" p-id="27468"></path><path d="M112 80a64 64 0 0 0-64 64v688a64 64 0 0 0 64 64h800a64 64 0 0 0 64-64V288H544L460.864 107.888A48 48 0 0 0 417.296 80H112z" fill="#d4237a" p-id="27469"></path><path d="M523.744 402a4.496 4.496 0 0 0-7.488 0l-99.488 149.2a4.48 4.48 0 0 0 3.744 6.992h63.52v157.808c0 2.208 1.792 4 4 4h63.936a4 4 0 0 0 4-4v-157.808h63.52a4.48 4.48 0 0 0 3.744-6.992l-99.488-149.2z" fill="#FFFFFF" p-id="27470"></path></svg>