<?xml version="1.0" standalone="no"?><!DOCTYPE svg PUBLIC "-//W3C//DTD SVG 1.1//EN" "http://www.w3.org/Graphics/SVG/1.1/DTD/svg11.dtd"><svg t="1764852085924" class="icon" viewBox="0 0 1395 1024" version="1.1" xmlns="http://www.w3.org/2000/svg" p-id="18773" xmlns:xlink="http://www.w3.org/1999/xlink" width="272.4609375" height="200"><path d="M1393.733245 862.911565h-113.197279v-609.52381a113.197279 113.197279 0 0 0-117.55102-107.972789H223.447531a113.197279 113.197279 0 0 0-117.551021 107.972789v609.52381H0.535966V870.748299a141.931973 141.931973 0 0 0 125.387755 153.251701h1142.421769A141.931973 141.931973 0 0 0 1393.733245 870.748299v-5.224489-2.612245z" fill="#d4237a" p-id="18774"></path><path d="M1204.780864 851.591837V307.37415a96.653061 96.653061 0 0 0-102.748299-87.07483h-818.503402a96.653061 96.653061 0 0 0-102.748299 87.07483v544.217687z" fill="#FFFFFF" p-id="18775"></path><path d="M1038.467939 117.55102V87.07483a75.755102 75.755102 0 0 0-65.306123-87.07483H426.331884a75.755102 75.755102 0 0 0-65.306122 87.07483v34.829932z" fill="#d4237a" p-id="18776"></path><path d="M1161.243449 800.217687V348.29932a87.07483 87.07483 0 0 0-87.07483-77.496599H322.712837a87.07483 87.07483 0 0 0-87.07483 77.496599v452.789115z" fill="#dd418dff" p-id="18777"></path><path d="M1110.740048 934.312925m-48.761905 0a48.761905 48.761905 0 1 0 97.523809 0 48.761905 48.761905 0 1 0-97.523809 0Z" fill="#f87ab7ff" p-id="18778"></path><path d="M1045.433925 485.006803a168.054422 168.054422 0 0 0-128.870748 75.755102c-8.707483 10.44898-25.251701 29.605442-32.217687 30.47619a213.333333 213.333333 0 0 1-39.183674-60.081632c-33.088435-59.210884-77.496599-141.061224-169.795918-141.061225a206.367347 206.367347 0 0 0-160.217687 87.07483 268.190476 268.190476 0 0 1-99.265306 76.62585A143.673469 143.673469 0 0 1 261.760456 507.646259a42.666667 42.666667 0 0 0-19.156463-13.061225V609.52381a215.07483 215.07483 0 0 0 208.979592 27.863945 353.52381 353.52381 0 0 0 127.129252-101.877551c36.571429-39.183673 55.727891-58.340136 96.653061-58.340136s60.952381 38.312925 93.170068 95.782313 50.503401 87.07483 95.782313 102.748299a94.040816 94.040816 0 0 0 23.510204 0 134.095238 134.095238 0 0 0 96.653061-61.823129c23.510204-27.863946 40.054422-45.278912 62.693878-45.278912a43.537415 43.537415 0 0 0 0-87.074829z" fill="#fff" p-id="18779"></path></svg>