<?xml version="1.0" standalone="no"?><!DOCTYPE svg PUBLIC "-//W3C//DTD SVG 1.1//EN" "http://www.w3.org/Graphics/SVG/1.1/DTD/svg11.dtd"><svg t="1764852463036" class="icon" viewBox="0 0 1024 1024" version="1.1" xmlns="http://www.w3.org/2000/svg" p-id="44494" xmlns:xlink="http://www.w3.org/1999/xlink" width="200" height="200"><path d="M884.8896 102.4A62.2592 62.2592 0 0 1 947.2 164.608v150.5024H102.4V164.608C102.4 130.2784 130.304 102.4 164.6848 102.4h720.2048zM224.9216 174.08A51.9424 51.9424 0 0 0 173.056 225.92a51.84 51.84 0 0 0 71.7568 47.8976A51.8656 51.8656 0 0 0 224.9472 174.08z m134.528 0a51.968 51.968 0 0 0-51.8912 51.84 51.84 51.84 0 0 0 71.7568 47.8976 51.9424 51.9424 0 0 0 28.1088-28.032A51.84 51.84 0 0 0 359.4496 174.08z m134.5024 0a51.968 51.968 0 0 0-51.8912 51.84 51.84 51.84 0 0 0 71.7568 47.8976 51.968 51.968 0 0 0 28.1088-28.032A51.84 51.84 0 0 0 493.952 174.08z" fill="#d4237a" p-id="44495"></path><path d="M120.6528 928.9984A62.1568 62.1568 0 0 1 102.4 885.0432V377.728h844.8v507.3152a62.1312 62.1312 0 0 1-38.4768 57.4464 62.336 62.336 0 0 1-23.808 4.7104H164.6336a62.3104 62.3104 0 0 1-44.032-18.2016z" fill="#d4237a" p-id="44496"></path></svg>