<svg version="1.0" xmlns="http://www.w3.org/2000/svg" width="800.000000" height="500.000000" viewBox="0 0 800.000000 800.000000" preserveAspectRatio="xMidYMid meet">
  <metadata>
    <rdf:RDF xmlns:rdf="http://www.w3.org/1999/02/22-rdf-syntax-ns#" xmlns:rdfs="http://www.w3.org/2000/01/rdf-schema#" xmlns:dc="http://purl.org/dc/elements/1.1/">
      <rdf:Description dc:format="image/svg+xml" dc:Label="1" dc:ContentProducer="001191330110MACRLGPT8B00000" dc:ProduceID="325625134" dc:ReservedCode1="NM/ptbsToKcGoK4mufwXz2xav7L9v8zG14n50kJwbZg=" dc:ContentPropagator="001191330110MACRLGPT8B00000" dc:PropagateID="325625134" dc:ReservedCode2="NM/ptbsToKcGoK4mufwXz2xav7L9v8zG14n50kJwbZg="/>
    </rdf:RDF>
  </metadata>
  <g transform="translate(-200.323190,910.806953) scale(0.135058,-0.135058)" fill="#000000" stroke="none">
    <path fill="#f00" d="M7540 5482 c-45 -24 -83 -94 -76 -141 11 -71 70 -121 145 -121 142 0 195 189 72 258 -47 27 -95 28 -141 4z"/>
    <path d="M1715 5096 c-39 -17 -82 -67 -89 -103 -6 -29 -34 -335 -86 -923 -17 -190 -33 -357 -36 -373 -8 -38 28 -108 67 -131 65 -39 149 -13 185 56 10 20 24 115 40 287 13 141 26 270 29 288 8 48 83 124 161 163 55 27 74 32 115 28 57 -6 94 -34 105 -80 3 -17 -6 -168 -22 -337 -15 -168 -25 -318 -21 -333 19 -74 114 -116 184 -81 70 34 73 46 100 315 14 134 25 311 26 393 2 145 1 152 -26 206 -37 76 -110 143 -178 163 -137 41 -285 2 -398 -105 l-23 -22 7 74 c3 41 13 137 21 214 20 199 19 217 -13 256 -26 30 -78 59 -105 59 -7 -1 -27 -7 -43 -14z"/>
    <path d="M6481 5073 c-73 -36 -94 -136 -44 -209 14 -21 97 -151 185 -288 l158 -249 -52 -71 c-224 -304 -423 -544 -535 -643 -299 -263 -625 -410 -1053 -474 -134 -20 -192 -23 -425 -23 -424 1 -609 25 -1610 209 -384 70 -663 113 -925 141 -194 21 -600 29 -757 15 -425 -39 -782 -150 -1060 -330 -109 -71 -136 -106 -130 -169 7 -63 71 -122 135 -122 10 0 68 30 128 67 184 112 346 178 559 228 390 91 796 94 1385 9 173 -24 269 -41 870 -148 782 -140 1016 -168 1420 -167 638 0 1117 151 1542 484 163 127 294 271 532 580 71 92 132 169 136 172 4 3 87 -114 184 -260 97 -145 187 -272 201 -281 114 -75 263 55 197 171 -9 17 -101 157 -204 312 -104 155 -188 285 -188 290 0 5 13 24 28 43 95 116 395 526 408 555 52 125 -130 233 -223 133 -12 -13 -102 -132 -201 -265 l-179 -241 -21 36 c-33 58 -247 393 -282 440 -50 68 -113 87 -179 55z"/>
    <path d="M829 5070 c-96 -12 -222 -53 -309 -101 -96 -53 -231 -187 -289 -286 -227 -385 -89 -866 304 -1058 118 -57 181 -70 350 -70 135 0 158 3 235 27 47 15 121 49 165 75 120 72 150 132 102 204 -24 36 -77 76 -113 85 -15 4 -41 -8 -86 -39 -215 -147 -498 -123 -666 58 -64 68 -94 122 -117 210 -58 223 63 477 275 577 190 90 372 76 545 -41 57 -39 134 -16 175 51 42 70 16 142 -73 199 -134 87 -331 130 -498 109z"/>
    <path d="M5186 5055 c-99 -25 -186 -73 -252 -139 -168 -169 -176 -415 -19 -571 59 -60 148 -107 304 -164 140 -52 180 -72 218 -110 106 -106 -17 -271 -202 -271 -67 0 -187 35 -270 79 -42 23 -86 41 -98 41 -37 0 -101 -43 -119 -80 -55 -108 17 -185 241 -261 89 -31 105 -33 231 -33 186 0 283 32 389 130 189 175 188 461 -4 612 -63 50 -139 87 -285 142 -148 55 -182 72 -214 110 -49 59 -34 146 35 204 113 95 287 84 461 -31 84 -56 188 11 188 121 0 38 -6 52 -32 81 -40 41 -131 94 -219 125 -83 29 -265 37 -353 15z"/>
    <path d="M3000 4634 c-92 -24 -160 -64 -230 -133 -110 -109 -167 -242 -177 -408 -25 -419 349 -663 768 -502 88 34 119 62 126 116 7 50 -14 92 -63 129 l-36 28 -94 -32 c-191 -65 -339 -29 -405 100 -37 72 -54 68 291 68 l310 0 32 29 c31 28 32 31 36 125 3 54 -1 124 -8 159 -40 202 -211 338 -424 336 -39 0 -96 -7 -126 -15z m217 -260 c40 -30 73 -82 73 -115 l0 -29 -195 0 c-183 0 -195 1 -195 19 0 27 78 111 125 133 54 25 153 21 192 -8z"/>
    <path d="M4199 4636 c-65 -25 -120 -57 -159 -92 l-39 -36 -14 35 c-59 140 -244 94 -261 -66 -31 -281 -72 -817 -64 -844 14 -51 60 -83 120 -83 28 0 62 7 78 16 53 32 59 54 85 346 14 150 29 289 35 309 12 43 78 112 134 141 22 11 68 23 101 26 55 4 64 2 92 -22 20 -17 35 -40 39 -61 3 -18 -6 -157 -20 -308 -30 -321 -32 -365 -10 -395 22 -32 67 -52 116 -52 60 0 102 28 121 82 20 56 71 616 65 717 -8 126 -63 217 -162 268 -62 32 -197 42 -257 19z"/>
    <path d="M5934 4291 c-18 -11 -39 -30 -48 -42 -20 -29 -21 -101 -1 -139 27 -53 56 -60 242 -60 147 0 172 2 199 19 62 38 79 123 38 187 -30 46 -68 54 -241 54 -138 0 -162 -3 -189 -19z"/>
  </g>
</svg>